<svg width="321" height="321" viewBox="0 0 321 321" fill="none" xmlns="http://www.w3.org/2000/svg">
<rect width="321" height="321" rx="48" fill="black"/>
<path d="M206.878 118.364L202.267 146.205H119.788L124.4 118.364H206.878ZM120.919 252L144.845 108.706C146.411 99.02 149.601 90.9867 154.415 84.6065C159.288 78.2263 165.291 73.4412 172.425 70.2511C179.617 67.0609 187.39 65.4659 195.742 65.4659C201.426 65.4659 206.559 65.9009 211.141 66.771C215.781 67.641 219.146 68.424 221.234 69.12L210.184 96.9609C208.792 96.4969 207.081 96.0619 205.051 95.6559C203.021 95.2499 200.875 95.0469 198.613 95.0469C193.219 95.0469 189.246 96.3229 186.694 98.875C184.199 101.369 182.517 104.878 181.647 109.402L157.896 252H120.919Z" fill="white"/>
</svg>
