<svg width="321" height="321" viewBox="0 0 321 321" fill="none" xmlns="http://www.w3.org/2000/svg">
<rect width="321" height="321" rx="48" fill="black"/>
<path d="M193.503 129.804C193.74 123.885 192.011 119.316 188.318 116.097C184.672 112.877 179.156 111.267 171.77 111.267C166.751 111.267 162.395 111.977 158.702 113.398C155.009 114.771 152.049 116.688 149.824 119.151C147.646 121.565 146.296 124.359 145.776 127.531C145.255 130.135 145.42 132.408 146.273 134.349C147.172 136.291 148.569 137.972 150.463 139.392C152.404 140.765 154.701 141.973 157.352 143.014C160.004 144.009 162.821 144.861 165.804 145.571L178.304 148.696C184.412 150.116 189.904 152.01 194.781 154.378C199.705 156.745 203.825 159.657 207.139 163.114C210.501 166.57 212.868 170.642 214.241 175.33C215.615 180.017 215.804 185.391 214.81 191.452C213.295 200.353 209.767 208.071 204.227 214.605C198.688 221.092 191.42 226.134 182.423 229.733C173.427 233.284 163.01 235.06 151.173 235.06C139.431 235.06 129.511 233.26 121.415 229.662C113.318 226.063 107.423 220.737 103.73 213.682C100.084 206.58 98.9953 197.796 100.463 187.332H130.222C129.701 192.209 130.411 196.281 132.352 199.548C134.341 202.768 137.3 205.206 141.23 206.864C145.16 208.473 149.777 209.278 155.08 209.278C160.335 209.278 164.999 208.521 169.071 207.006C173.19 205.491 176.528 203.384 179.085 200.685C181.642 197.986 183.205 194.884 183.773 191.381C184.341 188.114 183.844 185.367 182.281 183.142C180.719 180.917 178.209 179.023 174.753 177.46C171.344 175.85 167.106 174.43 162.04 173.199L146.841 169.222C135.098 166.239 126.221 161.575 120.207 155.23C114.194 148.885 112.04 140.339 113.744 129.591C115.259 120.784 118.929 113.09 124.753 106.509C130.624 99.8797 138.01 94.7424 146.912 91.0966C155.861 87.4034 165.638 85.5568 176.244 85.5568C187.04 85.5568 196.154 87.4271 203.588 91.1676C211.022 94.8608 216.443 100.022 219.852 106.651C223.261 113.279 224.303 120.997 222.977 129.804H193.503Z" fill="white"/>
</svg>
